# Max2Obj Version 4.0 Mar 10th, 2001
#
mtllib ./Stone_Forest_1_LOD2.mtl
g
# object Stone_F_1_LOD2 to come ...
#
v  -56.413509 -1.154633 56.121071
v  -32.993122 -10.544712 66.488182
v  -0.108904 -12.708801 68.698944
v  30.616182 -5.502319 62.143898
v  55.976959 0.069927 55.945724
v  -71.676086 -15.732407 35.713646
v  -43.247166 -33.988777 43.634624
v  -0.193056 -29.539139 42.706184
v  36.025669 -16.101738 35.951618
v  58.543060 -1.932335 28.879715
v  -74.510277 -18.450249 -0.022453
v  -47.904663 -43.475761 -0.643884
v  0.014607 -42.080887 -0.016030
v  44.307213 -33.104019 0.309860
v  69.864418 -13.756016 -0.050063
v  -71.293053 -15.119484 -35.409924
v  -41.390450 -27.017014 -41.060249
v  -0.369465 -25.040634 -40.610580
v  36.188335 -14.113541 -35.744003
v  63.654819 -7.773869 -32.007690
v  -56.035782 -0.854210 -54.235882
v  -32.636406 -7.796165 -62.545471
v  0.647152 -2.486149 -57.789497
v  31.250984 -5.117912 -61.375267
v  55.486610 0.660831 -55.515007
v  -55.804943 109.584366 56.490704
v  -31.558332 118.536957 63.549389
v  0.445424 124.695450 68.988243
v  34.339256 125.179520 69.148338
v  51.831753 110.224991 52.878193
v  -59.248680 114.028946 29.758759
v  -34.629448 121.844818 34.784893
v  0.664745 136.116455 41.088535
v  42.584530 142.365799 42.599651
v  59.275063 116.975235 29.761538
v  -72.451012 128.242096 -0.875282
v  -42.465233 139.934479 -0.323645
v  0.602017 146.148834 -0.161621
v  44.816429 146.456573 0.441550
v  61.800694 119.040695 -0.703981
v  -72.737854 129.261688 -37.495495
v  -39.982342 136.471954 -40.165157
v  -0.131467 144.399658 -43.920280
v  39.050476 134.044312 -39.144630
v  56.265659 113.093124 -29.140011
v  -56.582253 110.268799 -54.916973
v  -28.212486 109.603073 -53.953304
v  0.741622 119.733109 -63.171581
v  34.587372 125.256134 -69.078163
v  58.375942 114.345688 -58.174885
v  -61.093193 25.327835 60.526314
v  -38.357471 17.016155 75.967224
v  0.007707 13.617985 84.077560
v  40.841408 15.134407 82.396896
v  69.484810 21.626385 69.291595
v  78.383095 17.295750 39.328110
v  88.496292 12.370365 -0.151523
v  77.668991 17.194374 -38.817856
v  67.616585 22.272095 -67.805496
v  42.518772 12.918839 -88.039055
v  0.655726 16.938393 -77.512215
v  -36.546410 19.961555 -71.076340
v  -59.258373 25.863182 -57.831055
v  -81.997360 15.183872 -40.282204
v  -95.009132 9.529339 0.266754
v  -82.670151 15.130291 40.716389
v  -67.886452 56.798058 66.006912
v  -40.100002 55.916496 78.197212
v  0.149825 55.924843 84.853012
v  42.118008 55.583931 82.615112
v  70.824959 55.518356 70.363853
v  92.012177 55.912079 45.295116
v  95.905197 55.797775 0.093016
v  94.781342 55.820412 -46.478031
v  70.422417 55.989372 -70.443474
v  42.815022 55.915550 -85.452034
v  0.084978 56.135460 -98.270538
v  -44.779987 55.454910 -90.454842
v  -67.575790 56.234085 -67.500038
v  -85.942329 56.173065 -42.785210
v  -99.194054 55.947456 0.076489
v  -94.017090 55.755280 46.133667
v  -68.140923 89.936127 67.115341
v  -38.288277 94.472336 74.377930
v  -0.027496 98.705811 82.501228
v  38.954422 94.879562 77.674721
v  56.333309 84.155418 56.298370
v  72.270874 92.074127 36.204018
v  86.240768 98.499786 0.043719
v  74.087112 93.363693 -37.591614
v  61.543812 86.793495 -62.030563
v  39.893528 95.734207 -79.146187
v  -0.112890 97.200287 -82.719154
v  -41.569946 97.796539 -85.015610
v  -68.727936 90.344360 -68.591217
v  -85.217743 98.523087 -42.334469
v  -84.724365 98.510712 -0.198525
v  -80.945419 95.342377 40.904354
# 98 vertices

vt  0.549528 0.369253 0.000000
vt  0.614049 0.354306 0.000000
vt  0.728703 0.383617 0.000000
vt  0.678708 0.363560 0.000000
vt  0.952265 0.393097 0.000000
vt  0.779399 0.367828 0.000000
vt  0.842636 0.356635 0.000000
vt  0.908257 0.365264 0.000000
vt  0.979355 0.437124 0.000000
vt  0.991767 0.490430 0.000000
vt  0.457508 0.255493 0.000000
vt  0.321202 0.185798 0.000000
vt  0.480370 0.171598 0.000000
vt  0.500818 0.214722 0.000000
vt  0.286930 0.161742 0.000000
vt  0.071590 0.555151 0.000000
vt  0.050537 0.586060 0.000000
vt  0.096274 0.603218 0.000000
vt  0.155692 0.613464 0.000000
vt  0.220615 0.606889 0.000000
vt  0.020369 0.545119 0.000000
vt  0.139579 0.562443 0.000000
vt  0.211329 0.556450 0.000000
vt  0.010928 0.486990 0.000000
vt  0.064087 0.487007 0.000000
vt  0.139785 0.486947 0.000000
vt  0.212117 0.487062 0.000000
vt  0.042526 0.391800 0.000000
vt  0.021717 0.432061 0.000000
vt  0.085694 0.370018 0.000000
vt  0.070846 0.418359 0.000000
vt  0.146834 0.362862 0.000000
vt  0.139699 0.414821 0.000000
vt  0.210937 0.370348 0.000000
vt  0.262836 0.422681 0.000000
vt  0.212957 0.420414 0.000000
vt  0.264006 0.547553 0.000000
vt  0.318497 0.555738 0.000000
vt  0.387583 0.559577 0.000000
vt  0.455824 0.554069 0.000000
vt  0.264710 0.484888 0.000000
vt  0.317294 0.487013 0.000000
vt  0.457870 0.486854 0.000000
vt  0.387240 0.491001 0.000000
vt  0.504148 0.486898 0.000000
vt  0.264255 0.372928 0.000000
vt  0.320879 0.422979 0.000000
vt  0.382807 0.424118 0.000000
vt  0.457162 0.419638 0.000000
vt  0.549991 0.606062 0.000000
vt  0.676481 0.607911 0.000000
vt  0.613011 0.614534 0.000000
vt  0.558361 0.556679 0.000000
vt  0.505064 0.549676 0.000000
vt  0.619228 0.561964 0.000000
vt  0.681775 0.556178 0.000000
vt  0.552803 0.421483 0.000000
vt  0.618554 0.410551 0.000000
vt  0.550670 0.486928 0.000000
vt  0.682796 0.417168 0.000000
vt  0.620510 0.486870 0.000000
vt  0.736634 0.487079 0.000000
vt  0.690156 0.486944 0.000000
vt  0.504534 0.425953 0.000000
vt  0.725218 0.587061 0.000000
vt  0.776437 0.599591 0.000000
vt  0.840844 0.611792 0.000000
vt  0.954493 0.594804 0.000000
vt  0.904233 0.608755 0.000000
vt  0.736670 0.538690 0.000000
vt  0.790443 0.555790 0.000000
vt  0.860926 0.565108 0.000000
vt  0.980980 0.549057 0.000000
vt  0.930597 0.558593 0.000000
vt  0.787891 0.486897 0.000000
vt  0.864137 0.487025 0.000000
vt  0.938399 0.487095 0.000000
vt  0.735517 0.432705 0.000000
vt  0.788826 0.417468 0.000000
vt  0.932271 0.413891 0.000000
vt  0.864244 0.410046 0.000000
vt  0.272051 0.598214 0.000000
vt  0.323326 0.603712 0.000000
vt  0.386431 0.609332 0.000000
vt  0.445927 0.605422 0.000000
vt  0.497108 0.602319 0.000000
vt  0.504079 0.651864 0.000000
vt  0.453585 0.660036 0.000000
vt  0.387767 0.661648 0.000000
vt  0.261326 0.648580 0.000000
vt  0.317742 0.655718 0.000000
vt  0.261129 0.712878 0.000000
vt  0.318070 0.728705 0.000000
vt  0.387904 0.730075 0.000000
vt  0.458189 0.730997 0.000000
vt  0.508177 0.715967 0.000000
vt  0.267813 0.776275 0.000000
vt  0.287302 0.822630 0.000000
vt  0.318066 0.800396 0.000000
vt  0.328607 0.851734 0.000000
vt  0.387889 0.805859 0.000000
vt  0.387936 0.860318 0.000000
vt  0.457589 0.801961 0.000000
vt  0.508129 0.778773 0.000000
vt  0.490969 0.828555 0.000000
vt  0.445792 0.854059 0.000000
vt  0.264029 0.328151 0.000000
vt  0.320097 0.324827 0.000000
vt  0.317466 0.374148 0.000000
vt  0.381625 0.372398 0.000000
vt  0.443901 0.372751 0.000000
vt  0.496757 0.376564 0.000000
vt  0.266566 0.270544 0.000000
vt  0.384604 0.323019 0.000000
vt  0.456656 0.328234 0.000000
vt  0.506831 0.328234 0.000000
vt  0.272914 0.210457 0.000000
vt  0.317599 0.254594 0.000000
vt  0.387984 0.249783 0.000000
vt  0.503322 0.272535 0.000000
vt  0.328988 0.134027 0.000000
vt  0.389839 0.118852 0.000000
vt  0.389722 0.172261 0.000000
vt  0.444124 0.139905 0.000000
vt  0.454097 0.188064 0.000000
# 125 texture vertices

vn  -0.587960 -0.342821 0.732651
vn  -0.258965 -0.552121 0.792527
vn  0.081369 -0.720057 0.689128
vn  0.341596 -0.804080 0.486587
vn  0.448328 -0.812472 0.372682
vn  -0.744086 -0.530133 0.406565
vn  -0.261421 -0.818110 0.512207
vn  0.191808 -0.869316 0.455521
vn  0.468173 -0.758249 0.453732
vn  0.595194 -0.729254 0.337539
vn  -0.744320 -0.667567 -0.018481
vn  -0.340969 -0.934430 -0.102868
vn  0.138756 -0.987198 -0.078660
vn  0.405585 -0.914043 -0.005093
vn  0.719086 -0.686089 0.110439
vn  -0.624040 -0.651472 -0.431460
vn  -0.200438 -0.818010 -0.539151
vn  0.118039 -0.818179 -0.562716
vn  0.272014 -0.866148 -0.419279
vn  0.583031 -0.721580 -0.373360
vn  -0.467214 -0.329974 -0.820261
vn  -0.075080 -0.528718 -0.845470
vn  -0.054870 -0.635299 -0.770314
vn  0.104463 -0.834680 -0.540738
vn  0.476205 -0.759915 -0.442446
vn  -0.482544 0.773436 0.411032
vn  -0.337683 0.756708 0.559789
vn  -0.149146 0.717836 0.680049
vn  0.382184 0.569165 0.728002
vn  0.835586 0.321329 0.445582
vn  -0.511667 0.794000 0.328269
vn  -0.342371 0.894047 0.288899
vn  -0.234719 0.936576 0.260254
vn  0.440791 0.828838 0.344572
vn  0.851627 0.454277 0.261464
vn  -0.664449 0.703842 0.251226
vn  -0.265079 0.941085 0.209982
vn  -0.072495 0.992742 0.095962
vn  0.461616 0.883447 -0.080197
vn  0.780297 0.623296 -0.051366
vn  -0.561064 0.745079 -0.360644
vn  -0.262490 0.798594 -0.541615
vn  -0.030076 0.913130 -0.406558
vn  0.485647 0.845613 -0.221551
vn  0.749530 0.646807 -0.140876
vn  -0.108023 0.733812 -0.670710
vn  -0.184257 0.677266 -0.712293
vn  -0.242103 0.551733 -0.798108
vn  0.216834 0.627416 -0.747885
vn  0.728051 0.505156 -0.463421
vn  -0.571756 -0.224975 0.788975
vn  -0.395148 -0.200329 0.896508
vn  -0.065271 -0.255791 0.964526
vn  0.288261 -0.391267 0.873966
vn  0.653594 -0.379849 0.654622
vn  0.814419 -0.528458 0.239695
vn  0.894479 -0.443650 0.055522
vn  0.815608 -0.452727 -0.360309
vn  0.766089 -0.296216 -0.570406
vn  0.275950 -0.481929 -0.831623
vn  -0.198144 -0.602919 -0.772805
vn  -0.338719 -0.447288 -0.827770
vn  -0.565150 -0.268993 -0.779903
vn  -0.787778 -0.214592 -0.577370
vn  -0.934744 -0.355307 -0.003133
vn  -0.763162 -0.349625 0.543458
vn  -0.489025 -0.120110 0.863961
vn  -0.315239 -0.012807 0.948926
vn  -0.051152 0.022051 0.998447
vn  0.284314 0.130133 0.949858
vn  0.572808 0.251975 0.780000
vn  0.920650 0.084959 0.381032
vn  0.999010 0.041406 0.016245
vn  0.909540 0.054276 -0.412057
vn  0.652115 0.053087 -0.756259
vn  0.382109 0.113256 -0.917151
vn  0.020684 -0.022344 -0.999536
vn  -0.433226 -0.203353 -0.878045
vn  -0.736671 -0.222571 -0.638575
vn  -0.891604 -0.045417 -0.450533
vn  -0.989317 0.112535 -0.092667
vn  -0.879603 0.002075 0.475704
vn  -0.543387 0.309850 0.780208
vn  -0.264560 0.271856 0.925258
vn  -0.060467 0.255900 0.964810
vn  0.494759 0.207564 0.843878
vn  0.670837 0.393507 0.628594
vn  0.684439 0.543257 0.486226
vn  0.838850 0.544319 -0.006939
vn  0.813345 0.504076 -0.290478
vn  0.704868 0.338848 -0.623172
vn  0.346190 0.329460 -0.878413
vn  0.031373 0.549472 -0.834923
vn  -0.234096 0.593140 -0.770314
vn  -0.682922 0.266052 -0.680319
vn  -0.929657 0.214696 -0.299407
vn  -0.924199 0.371521 0.088478
vn  -0.788927 0.553760 0.266353
# 98 vertex normals

g Stone_F_1_LOD2
usemtl Stone_F_1
s 1
f 1/46/1 6/107/6 7/108/7
f 7/108/7 2/109/2 1/46/1
f 2/109/2 7/108/7 8/114/8
f 8/114/8 3/110/3 2/109/2
f 3/110/3 8/114/8 9/115/9
f 9/115/9 4/111/4 3/110/3
f 4/111/4 9/115/9 10/116/10
f 10/116/10 5/112/5 4/111/4
f 6/107/6 11/113/11 12/118/12
f 12/118/12 7/108/7 6/107/6
f 7/108/7 12/118/12 13/119/13
f 13/119/13 8/114/8 7/108/7
f 8/114/8 13/119/13 14/11/14
f 14/11/14 9/115/9 8/114/8
f 9/115/9 14/11/14 15/120/15
f 15/120/15 10/116/10 9/115/9
f 11/113/11 16/117/16 17/12/17
f 17/12/17 12/118/12 11/113/11
f 12/118/12 17/12/17 18/123/18
f 18/123/18 13/119/13 12/118/12
f 13/119/13 18/123/18 19/125/19
f 19/125/19 14/11/14 13/119/13
f 14/11/14 19/125/19 20/14/20
f 20/14/20 15/120/15 14/11/14
f 16/117/16 21/15/21 22/121/22
f 22/121/22 17/12/17 16/117/16
f 17/12/17 22/121/22 23/122/23
f 23/122/23 18/123/18 17/12/17
f 18/123/18 23/122/23 24/124/24
f 24/124/24 19/125/19 18/123/18
f 19/125/19 24/124/24 25/13/25
f 25/13/25 20/14/20 19/125/19
f 26/82/26 27/83/27 32/91/32
f 32/91/32 31/90/31 26/82/26
f 27/83/27 28/84/28 33/89/33
f 33/89/33 32/91/32 27/83/27
f 28/84/28 29/85/29 34/88/34
f 34/88/34 33/89/33 28/84/28
f 29/85/29 30/86/30 35/87/35
f 35/87/35 34/88/34 29/85/29
f 31/90/31 32/91/32 37/93/37
f 37/93/37 36/92/36 31/90/31
f 32/91/32 33/89/33 38/94/38
f 38/94/38 37/93/37 32/91/32
f 33/89/33 34/88/34 39/95/39
f 39/95/39 38/94/38 33/89/33
f 34/88/34 35/87/35 40/96/40
f 40/96/40 39/95/39 34/88/34
f 36/92/36 37/93/37 42/99/42
f 42/99/42 41/97/41 36/92/36
f 37/93/37 38/94/38 43/101/43
f 43/101/43 42/99/42 37/93/37
f 38/94/38 39/95/39 44/103/44
f 44/103/44 43/101/43 38/94/38
f 39/95/39 40/96/40 45/104/45
f 45/104/45 44/103/44 39/95/39
f 41/97/41 42/99/42 47/100/47
f 47/100/47 46/98/46 41/97/41
f 42/99/42 43/101/43 48/102/48
f 48/102/48 47/100/47 42/99/42
f 43/101/43 44/103/44 49/106/49
f 49/106/49 48/102/48 43/101/43
f 44/103/44 45/104/45 50/105/50
f 50/105/50 49/106/49 44/103/44
f 1/46/1 2/109/2 52/47/52
f 52/47/52 51/35/51 1/46/1
f 2/109/2 3/110/3 53/48/53
f 53/48/53 52/47/52 2/109/2
f 3/110/3 4/111/4 54/49/54
f 54/49/54 53/48/53 3/110/3
f 4/111/4 5/112/5 55/64/55
f 55/64/55 54/49/54 4/111/4
f 51/35/51 52/47/52 68/42/68
f 68/42/68 67/41/67 51/35/51
f 52/47/52 53/48/53 69/44/69
f 69/44/69 68/42/68 52/47/52
f 53/48/53 54/49/54 70/43/70
f 70/43/70 69/44/69 53/48/53
f 54/49/54 55/64/55 71/45/71
f 71/45/71 70/43/70 54/49/54
f 67/41/67 68/42/68 84/38/84
f 84/38/84 83/37/83 67/41/67
f 68/42/68 69/44/69 85/39/85
f 85/39/85 84/38/84 68/42/68
f 69/44/69 70/43/70 86/40/86
f 86/40/86 85/39/85 69/44/69
f 70/43/70 71/45/71 87/54/87
f 87/54/87 86/40/86 70/43/70
f 83/37/83 84/38/84 27/83/27
f 27/83/27 26/82/26 83/37/83
f 84/38/84 85/39/85 28/84/28
f 28/84/28 27/83/27 84/38/84
f 85/39/85 86/40/86 29/85/29
f 29/85/29 28/84/28 85/39/85
f 86/40/86 87/54/87 30/86/30
f 30/86/30 29/85/29 86/40/86
f 5/112/5 10/1/10 56/57/56
f 56/57/56 55/64/55 5/112/5
f 10/1/10 15/2/15 57/58/57
f 57/58/57 56/57/56 10/1/10
f 15/2/15 20/4/20 58/60/58
f 58/60/58 57/58/57 15/2/15
f 20/4/20 25/3/25 59/78/59
f 59/78/59 58/60/58 20/4/20
f 55/64/55 56/57/56 72/59/72
f 72/59/72 71/45/71 55/64/55
f 56/57/56 57/58/57 73/61/73
f 73/61/73 72/59/72 56/57/56
f 57/58/57 58/60/58 74/63/74
f 74/63/74 73/61/73 57/58/57
f 58/60/58 59/78/59 75/62/75
f 75/62/75 74/63/74 58/60/58
f 71/45/71 72/59/72 88/53/88
f 88/53/88 87/54/87 71/45/71
f 72/59/72 73/61/73 89/55/89
f 89/55/89 88/53/88 72/59/72
f 73/61/73 74/63/74 90/56/90
f 90/56/90 89/55/89 73/61/73
f 74/63/74 75/62/75 91/70/91
f 91/70/91 90/56/90 74/63/74
f 87/54/87 88/53/88 35/50/35
f 35/50/35 30/86/30 87/54/87
f 88/53/88 89/55/89 40/52/40
f 40/52/40 35/50/35 88/53/88
f 89/55/89 90/56/90 45/51/45
f 45/51/45 40/52/40 89/55/89
f 90/56/90 91/70/91 50/65/50
f 50/65/50 45/51/45 90/56/90
f 25/3/25 24/6/24 60/79/60
f 60/79/60 59/78/59 25/3/25
f 24/6/24 23/7/23 61/81/61
f 61/81/61 60/79/60 24/6/24
f 23/7/23 22/8/22 62/80/62
f 62/80/62 61/81/61 23/7/23
f 22/8/22 21/5/21 63/9/63
f 63/9/63 62/80/62 22/8/22
f 59/78/59 60/79/60 76/75/76
f 76/75/76 75/62/75 59/78/59
f 60/79/60 61/81/61 77/76/77
f 77/76/77 76/75/76 60/79/60
f 61/81/61 62/80/62 78/77/78
f 78/77/78 77/76/77 61/81/61
f 62/80/62 63/9/63 79/10/79
f 79/10/79 78/77/78 62/80/62
f 75/62/75 76/75/76 92/71/92
f 92/71/92 91/70/91 75/62/75
f 76/75/76 77/76/77 93/72/93
f 93/72/93 92/71/92 76/75/76
f 77/76/77 78/77/78 94/74/94
f 94/74/94 93/72/93 77/76/77
f 78/77/78 79/10/79 95/73/95
f 95/73/95 94/74/94 78/77/78
f 91/70/91 92/71/92 49/66/49
f 49/66/49 50/65/50 91/70/91
f 92/71/92 93/72/93 48/67/48
f 48/67/48 49/66/49 92/71/92
f 93/72/93 94/74/94 47/69/47
f 47/69/47 48/67/48 93/72/93
f 94/74/94 95/73/95 46/68/46
f 46/68/46 47/69/47 94/74/94
f 21/28/21 16/30/16 64/31/64
f 64/31/64 63/29/63 21/28/21
f 16/30/16 11/32/11 65/33/65
f 65/33/65 64/31/64 16/30/16
f 11/32/11 6/34/6 66/36/66
f 66/36/66 65/33/65 11/32/11
f 6/34/6 1/46/1 51/35/51
f 51/35/51 66/36/66 6/34/6
f 63/29/63 64/31/64 80/25/80
f 80/25/80 79/24/79 63/29/63
f 64/31/64 65/33/65 81/26/81
f 81/26/81 80/25/80 64/31/64
f 65/33/65 66/36/66 82/27/82
f 82/27/82 81/26/81 65/33/65
f 66/36/66 51/35/51 67/41/67
f 67/41/67 82/27/82 66/36/66
f 79/24/79 80/25/80 96/16/96
f 96/16/96 95/21/95 79/24/79
f 80/25/80 81/26/81 97/22/97
f 97/22/97 96/16/96 80/25/80
f 81/26/81 82/27/82 98/23/98
f 98/23/98 97/22/97 81/26/81
f 82/27/82 67/41/67 83/37/83
f 83/37/83 98/23/98 82/27/82
f 95/21/95 96/16/96 41/18/41
f 41/18/41 46/17/46 95/21/95
f 96/16/96 97/22/97 36/19/36
f 36/19/36 41/18/41 96/16/96
f 97/22/97 98/23/98 31/20/31
f 31/20/31 36/19/36 97/22/97
f 98/23/98 83/37/83 26/82/26
f 26/82/26 31/20/31 98/23/98
# 192 faces

g
